<svg height="512" viewBox="0 0 64 64" width="512" xmlns="http://www.w3.org/2000/svg"><g id="Administrator-Smartphone-Cloud-Office-Internet"><path d="m43.5 39.99a6.445 6.445 0 0 0 -1.02-.59l-5.28-2.4-2.2-1a2.772 2.772 0 0 1 -.18 1 2.988 2.988 0 0 1 -5.64 0 2.772 2.772 0 0 1 -.18-1l-2.2 1-5.28 2.4a6.445 6.445 0 0 0 -1.02.59 6 6 0 0 0 -2.5 4.88v8.13h28v-8.13a6 6 0 0 0 -2.5-4.88z" fill="#3d9ae2"/><path d="m35 33v3a2.772 2.772 0 0 1 -.18 1 2.988 2.988 0 0 1 -5.64 0 2.772 2.772 0 0 1 -.18-1v-3z" fill="#ffc477"/><path d="m61 53v4h-3-52-3v-4h15 6 16 6z" fill="#a97c50"/><path d="m58 9a3 3 0 0 1 0 6h-12a3 3 0 0 1 0-6h.28a1.984 1.984 0 0 1 1.72-3 2.058 2.058 0 0 1 1.07.31 3.993 3.993 0 1 1 7.38 2.69z" fill="#e6e7e8"/><path d="m6 57h52v4h-52z" fill="#a97c50"/><path d="m42 49v2a2.006 2.006 0 0 1 -2 2h-16a2.006 2.006 0 0 1 -2-2v-2z" fill="#acabb1"/><path d="m40 24a2 2 0 0 1 0 4 2.03 2.03 0 0 1 -1.04-.29 5.529 5.529 0 0 0 .04-.71v-2.73a2 2 0 0 1 1-.27z" fill="#ffb655"/><path d="m35 33v2.32a6.958 6.958 0 0 1 -6 0v-2.32z" fill="#ffb655"/><path d="m43.61 39.33-.11.66-1.5 9.01h-20l-1.5-9.01-.11-.66a2 2 0 0 1 1.97-2.33h19.28a2 2 0 0 1 1.97 2.33z" fill="#c6c5ca"/><path d="m25 27a5.529 5.529 0 0 0 .04.71 2.03 2.03 0 0 1 -1.04.29 2 2 0 1 1 1-3.73z" fill="#ffb655"/><path d="m17 7v12a4 4 0 0 1 -4 4h-6a3.876 3.876 0 0 1 -1.79-.43 3.976 3.976 0 0 1 -2.21-3.57v-12a4 4 0 0 1 4-4h6a4 4 0 0 1 4 4z" fill="#5aaae7"/><circle cx="32" cy="43" fill="#e6e7e8" r="2"/><path d="m17 7v12a4 4 0 0 1 -4 4h-6a3.876 3.876 0 0 1 -1.79-.43l11.27-17.54a3.994 3.994 0 0 1 .52 1.97z" fill="#3d9ae2"/><path d="m41 18v3l-2 2h-.56a2.009 2.009 0 0 1 -1.9-1.37l-.54-1.63-1.87 1.4a7.982 7.982 0 0 1 -4.8 1.6h-4.33l-3-3 1-2-2-4h16a4 4 0 0 1 4 4z" fill="#57565c"/><path d="m39 24.27v2.73a5.529 5.529 0 0 1 -.04.71 6.937 6.937 0 0 1 -3.96 5.61 7.017 7.017 0 0 1 -7.95-1.37 6.938 6.938 0 0 1 -2.01-4.24 5.529 5.529 0 0 1 -.04-.71v-4h4.33a7.982 7.982 0 0 0 4.8-1.6l1.87-1.4.54 1.63a2.009 2.009 0 0 0 1.9 1.37h.56z" fill="#ffc477"/><path d="m6 57h52v2h-52z" fill="#8b5e3c"/><path d="m28 25h2v2h-2z"/><path d="m34 25h2v2h-2z"/><path d="m61 52h-14v-7.13a7.011 7.011 0 0 0 -2.417-5.286l.015-.091a3 3 0 0 0 -2.959-3.493h-4.223l-1.416-.644v-1.449a7.969 7.969 0 0 0 3.75-4.941c.084.007.165.034.25.034a2.992 2.992 0 0 0 .376-5.962l1.331-1.331a1 1 0 0 0 .293-.707v-3a5.006 5.006 0 0 0 -5-5h-16a1 1 0 0 0 -.895 1.447l1.777 3.553-.777 1.553a1 1 0 0 0 .188 1.154l2.331 2.331a2.992 2.992 0 0 0 .376 5.962c.085 0 .167-.027.252-.035a8 8 0 0 0 2.091 3.693 7.862 7.862 0 0 0 1.657 1.235v1.463l-1.416.644h-4.223a3 3 0 0 0 -2.961 3.493l.015.091a7.011 7.011 0 0 0 -2.415 5.286v7.13h-14a1 1 0 0 0 -1 1v4a1 1 0 0 0 1 1h2v3a1 1 0 0 0 1 1h52a1 1 0 0 0 1-1v-3h2a1 1 0 0 0 1-1v-4a1 1 0 0 0 -1-1zm-16-7.13v7.13h-2.184a2.966 2.966 0 0 0 .184-1v-1.917l1.164-6.983a5.027 5.027 0 0 1 .836 2.77zm-22 6.13v-1h18v1a1 1 0 0 1 -1 1h-16a1 1 0 0 1 -1-1zm18-25a1 1 0 0 1 -1 1v-2a1 1 0 0 1 1 1zm-17.1-8.447-1.282-2.553h14.382a3 3 0 0 1 3 3v2.586l-1.414 1.414h-.145a1 1 0 0 1 -.948-.684l-.544-1.632a1 1 0 0 0 -1.549-.484l-1.867 1.4a7.04 7.04 0 0 1 -4.2 1.4h-3.919l-2.2-2.2.678-1.356a1 1 0 0 0 .008-.891zm-.9 8.447a1 1 0 0 1 1-1v2a1 1 0 0 1 -1-1zm3.031 1.58a4.614 4.614 0 0 1 -.031-.58v-3h3.333a9.052 9.052 0 0 0 5.4-1.8l.757-.568.1.317a3 3 0 0 0 2.41 2.016v3.035a4.6 4.6 0 0 1 -.036.614 6 6 0 0 1 -8.542 4.8 5.833 5.833 0 0 1 -1.665-1.17 5.991 5.991 0 0 1 -1.726-3.664zm3.969 7.158a7.765 7.765 0 0 0 4 0v1.262h-4zm-8.4 3.616a.982.982 0 0 1 .761-.354h19.278a1 1 0 0 1 .986 1.164l-1.472 8.836h-18.306l-1.472-8.836a.985.985 0 0 1 .225-.81zm-2.6 6.516a5.027 5.027 0 0 1 .836-2.771l1.164 6.984v1.917a2.966 2.966 0 0 0 .184 1h-2.184zm38 15.13h-50v-2h50zm3-4h-56v-2h56z"/><path d="m32 46a3 3 0 1 0 -3-3 3 3 0 0 0 3 3zm0-4a1 1 0 1 1 -1 1 1 1 0 0 1 1-1z"/><path d="m46 16h12a4 4 0 0 0 0-8h-.1a4.85 4.85 0 0 0 .1-1 5 5 0 0 0 -9.587-1.971 3 3 0 0 0 -3.413 2.971q0 .063 0 .126a4 4 0 0 0 1 7.874zm0-6h.277a1 1 0 0 0 .864-1.5.983.983 0 0 1 -.141-.5 1.017 1.017 0 0 1 1.532-.841 1 1 0 0 0 1.522-.673 2.995 2.995 0 0 1 5.946.514 2.946 2.946 0 0 1 -.419 1.5 1 1 0 0 0 .864 1.5h1.555a2 2 0 0 1 0 4h-12a2 2 0 0 1 0-4z"/><path d="m7 24h6a5.006 5.006 0 0 0 5-5v-12a5.006 5.006 0 0 0 -5-5h-6a5.006 5.006 0 0 0 -5 5v12a5.006 5.006 0 0 0 5 5zm-3-17a3 3 0 0 1 3-3h6a3 3 0 0 1 3 3v12a3 3 0 0 1 -3 3h-6a3 3 0 0 1 -3-3z"/><path d="m8 6h4v2h-4z"/><path d="m9 18h2v2h-2z"/><path d="m7 10h6v2h-6z"/><path d="m7 14h6v2h-6z"/><path d="m54 37h2v2h-2z"/><path d="m58.536 34.464a5.008 5.008 0 0 0 -7.072 0l1.414 1.414a3.006 3.006 0 0 1 4.244 0z"/><path d="m61.364 31.636a9 9 0 0 0 -12.728 0l1.414 1.414a7 7 0 0 1 9.9 0z"/><path d="m49 44v2h3a1 1 0 0 0 .707-.293l3-3-1.414-1.414-2.707 2.707z"/><path d="m9 26v4a1 1 0 0 0 .293.707l7 7 1.414-1.414-6.707-6.707v-3.586z"/><path d="m53 23v-5h-2v4h-6v2h7a1 1 0 0 0 1-1z"/></g></svg>