<svg enable-background="new 0 0 256 256" height="512" viewBox="0 0 256 256" width="512" xmlns="http://www.w3.org/2000/svg"><g id="Layer_57"><g><g><g><path d="m86.391 95.754-34.656-46.571c-1.353-1.819-3.925-2.196-5.743-.843l-9.662 7.19c-1.819 1.353-2.196 3.925-.842 5.743l34.656 46.571c1.353 1.819 3.925 2.196 5.743.843l9.662-7.19c1.819-1.353 2.196-3.924.842-5.743z" fill="#6cadef"/></g></g><g><g><path d="m198.992 196.44-46.571-34.656c-1.819-1.353-4.39-.976-5.743.843l-7.19 9.662c-1.353 1.819-.976 4.39.843 5.743l46.571 34.656c1.819 1.353 4.39.976 5.743-.843l7.19-9.662c1.353-1.818.976-4.39-.843-5.743z" fill="#6cadef"/></g></g><g><g><path d="m140.673 178.287-8.288 8.288c-3.23 3.23-8.467 3.23-11.698 0-19.52-19.52-41.447-41.447-59.088-59.088-3.23-3.23-3.23-8.468 0-11.698l8.288-8.288-32.615-43.829c-3.423 3.847-6.116 7.697-8.216 11.38-6.802 11.93-7.918 26.328-3.223 39.235 5.737 15.772 13.286 29.413 18.962 38.552 4.345 6.996 9.504 13.45 15.327 19.273 5.629 5.629 10.261 10.262 15.941 15.942 5.824 5.823 12.277 10.982 19.273 15.327 9.139 5.676 22.78 13.225 38.552 18.962 12.906 4.694 27.304 3.579 39.235-3.223 3.683-2.1 7.533-4.793 11.38-8.216z" fill="#5290db"/></g></g><g><g><path d="m231.687 68.154h-68.805c-.625 0-.938-.756-.496-1.198l3.76-3.76c3.433-3.433 3.84-9.022.636-12.67-3.512-3.999-9.609-4.148-13.313-.445l-20.219 20.219c-3.561 3.562-3.559 9.336 0 12.896l20.218 20.218c3.703 3.702 9.796 3.556 13.31-.441 3.207-3.648 2.802-9.239-.633-12.674l-3.758-3.758c-.442-.442-.129-1.198.496-1.198h68.804c2.393 0 4.334-1.94 4.334-4.334v-8.522c0-2.393-1.94-4.333-4.334-4.333z" fill="#70d6f9"/></g></g><g><g><path d="m233.351 121.301-20.218-20.218c-3.703-3.702-9.796-3.556-13.309.441-3.207 3.648-2.802 9.239.633 12.674l3.758 3.758c.442.442.129 1.198-.496 1.198h-68.804c-2.393 0-4.334 1.94-4.334 4.334v8.521c0 2.394 1.94 4.334 4.334 4.334h68.805c.625 0 .938.756.496 1.198l-3.76 3.759c-3.433 3.433-3.84 9.022-.636 12.67 3.512 3.999 9.609 4.148 13.313.445l20.218-20.218c3.561-3.562 3.559-9.336 0-12.896z" fill="#fc657e"/></g></g><g><g><g><path d="m88.396 94.262-34.655-46.572c-1.053-1.415-2.595-2.336-4.34-2.592-1.746-.257-3.486.183-4.901 1.236l-9.663 7.189c-2.921 2.174-3.529 6.319-1.356 9.242l34.656 46.57c1.053 1.416 2.594 2.337 4.34 2.593.325.048.649.071.972.071 1.41 0 2.777-.451 3.929-1.308l9.661-7.19c1.416-1.053 2.336-2.594 2.593-4.34.257-1.744-.182-3.484-1.236-4.899zm-3.71 4.176c-.062.424-.286.798-.63 1.054l-9.662 7.19c-.344.257-.767.362-1.19.301-.424-.063-.798-.286-1.055-.63l-34.657-46.57c-.528-.711-.38-1.718.33-2.246l9.663-7.189c.345-.257.768-.362 1.191-.301.424.063.798.285 1.054.629l34.656 46.572c.256.343.362.766.3 1.19z"/></g></g></g><g><g><g><path d="m200.485 194.434-46.571-34.656c-2.921-2.172-7.066-1.565-9.242 1.356l-7.189 9.661c-2.174 2.922-1.566 7.067 1.355 9.242l46.571 34.656c1.182.879 2.564 1.304 3.936 1.304 2.018 0 4.012-.92 5.307-2.659l7.19-9.662c2.172-2.922 1.563-7.069-1.357-9.242zm-2.656 6.257-7.189 9.661c-.528.71-1.537.858-2.246.329l-46.571-34.656c-.344-.256-.567-.63-.63-1.055-.062-.424.044-.847.301-1.19l7.189-9.661c.315-.424.8-.646 1.29-.646.333 0 .669.103.956.316l46.571 34.656c.709.529.857 1.536.329 2.246z"/></g></g></g><g><g><path d="m141.873 177.088c-.976-.977-2.56-.977-3.535 0l-7.72 7.72c-1.09 1.09-2.539 1.69-4.081 1.69s-2.991-.601-4.082-1.69l-59.087-59.088c-2.25-2.251-2.25-5.912 0-8.163l7.637-7.636c.977-.976.977-2.559 0-3.535-.977-.977-2.559-.977-3.536 0l-7.637 7.636c-4.199 4.2-4.199 11.034.001 15.233l59.087 59.088c2.034 2.035 4.739 3.155 7.617 3.155s5.582-1.12 7.616-3.155l7.72-7.72c.976-.977.976-2.559 0-3.535z"/></g></g><g><g><path d="m185.803 209.776c-.906-1.04-2.485-1.149-3.527-.244-3.291 2.865-6.787 5.359-10.392 7.415-11.265 6.424-24.803 7.533-37.142 3.046-15.793-5.744-29.429-13.359-38.087-18.736-6.746-4.189-13.08-9.226-18.824-14.971l-15.941-15.941c-5.745-5.745-10.782-12.079-14.972-18.825-5.376-8.657-12.991-22.292-18.736-38.087-4.488-12.339-3.378-25.877 3.045-37.143 2.114-3.707 4.689-7.295 7.653-10.663.912-1.036.811-2.616-.225-3.528-1.037-.912-2.616-.812-3.529.226-3.188 3.622-5.961 7.488-8.243 11.489-7.152 12.544-8.391 27.607-3.401 41.328 5.892 16.198 13.687 30.157 19.188 39.017 4.392 7.071 9.668 13.706 15.684 19.722l15.941 15.941c6.015 6.016 12.651 11.292 19.722 15.684 8.859 5.502 22.82 13.297 39.016 19.188 5.553 2.02 11.325 3.019 17.062 3.019 8.438 0 16.799-2.162 24.266-6.42 3.892-2.219 7.659-4.906 11.198-7.987 1.042-.91 1.151-2.489.244-3.53z"/></g></g><g><g><g><path d="m231.687 65.654h-64.463l.689-.689c4.44-4.441 4.769-11.508.747-16.087-2.15-2.448-5.121-3.854-8.365-3.959-3.216-.102-6.332 1.134-8.594 3.396l-20.219 20.219c-4.529 4.53-4.529 11.901 0 16.431l20.218 20.218c2.175 2.175 5.153 3.403 8.222 3.403.123 0 .247-.002.37-.006 3.243-.104 6.213-1.509 8.363-3.955 4.027-4.581 3.7-11.65-.744-16.093l-.687-.688h64.461c3.768 0 6.834-3.065 6.834-6.834v-8.521c.002-3.769-3.064-6.835-6.832-6.835zm1.834 15.356c0 1.012-.823 1.834-1.834 1.834h-68.804c-1.3 0-2.461.776-2.958 1.978-.497 1.2-.224 2.57.694 3.487l3.758 3.758c2.584 2.584 2.814 6.65.523 9.257-1.229 1.396-2.922 2.199-4.769 2.259-1.857.061-3.588-.629-4.896-1.936l-20.218-20.218c-2.58-2.58-2.58-6.779 0-9.36l20.218-20.218c1.255-1.255 2.908-1.938 4.674-1.938.074 0 .149.001.224.003 1.848.061 3.542.863 4.77 2.261 2.288 2.605 2.057 6.67-.526 9.253l-3.758 3.759c-.92.918-1.193 2.288-.696 3.488.497 1.201 1.659 1.978 2.958 1.978h68.805c1.011 0 1.834.822 1.834 1.834v8.521z"/></g></g></g><g><g><g><path d="m235.119 119.533-20.219-20.219c-2.263-2.261-5.392-3.496-8.592-3.396-3.243.104-6.212 1.509-8.362 3.955-4.027 4.58-3.701 11.648.742 16.092l.688.688h-64.462c-3.768 0-6.833 3.065-6.833 6.834v8.521c0 3.769 3.065 6.834 6.833 6.834h64.463l-.689.689c-4.441 4.44-4.77 11.507-.747 16.088 2.15 2.447 5.122 3.853 8.366 3.958.124.004.248.006.372.006 3.069 0 6.047-1.228 8.221-3.402l20.219-20.218c4.529-4.528 4.529-11.9 0-16.43zm-3.536 12.897-20.219 20.218c-1.308 1.308-3.059 1.977-4.896 1.935-1.849-.061-3.543-.863-4.771-2.261-2.288-2.605-2.058-6.67.525-9.253l3.761-3.761c.918-.919 1.19-2.288.693-3.488s-1.658-1.976-2.958-1.976h-68.805c-1.011 0-1.833-.822-1.833-1.834v-8.521c0-1.012.822-1.834 1.833-1.834h68.804c1.3 0 2.461-.776 2.958-1.978.497-1.2.224-2.57-.694-3.487l-3.759-3.759c-2.584-2.584-2.813-6.649-.523-9.256 1.229-1.396 2.922-2.199 4.769-2.259 1.852-.057 3.587.627 4.896 1.935l20.218 20.218c2.581 2.58 2.581 6.78.001 9.361z"/></g></g></g><g><g><path d="m88.29 57.944c-1.88-2.574-4.651-4.262-7.801-4.752-1.369-.206-2.642.723-2.854 2.087s.722 2.642 2.086 2.854c1.83.284 3.44 1.265 4.532 2.76 1.093 1.496 1.538 3.327 1.253 5.157-.212 1.364.722 2.643 2.086 2.855.13.02.259.029.387.029 1.211 0 2.275-.882 2.467-2.115.49-3.149-.276-6.301-2.156-8.875z"/></g></g><g><g><path d="m82.423 40.763c-1.365-.205-2.643.723-2.854 2.086-.212 1.364.722 2.643 2.086 2.855 10.631 1.654 17.935 11.649 16.28 22.281-.212 1.364.722 2.643 2.086 2.855.13.02.26.029.387.029 1.211 0 2.275-.882 2.467-2.115 2.079-13.356-7.096-25.912-20.452-27.991z"/></g></g><g><g><path d="m84.357 28.333c-1.361-.208-2.643.722-2.854 2.086-.212 1.364.721 2.643 2.086 2.855 17.485 2.721 29.497 19.16 26.775 36.646-.212 1.364.722 2.643 2.086 2.855.13.02.259.029.387.029 1.211 0 2.275-.882 2.467-2.115 3.146-20.21-10.737-39.21-30.947-42.356z"/></g></g><g><g><path d="m221.9 176.2c-3.1-.6-5.6-3-6.2-6.1 0-.1-.3-.1-.3 0-.6 3.1-3.1 5.5-6.2 6.1-.1 0-.1.2 0 .3 3.1.6 5.6 3 6.2 6.1 0 .1.3.1.3 0 .6-3.1 3.1-5.5 6.2-6.1.1-.1.1-.3 0-.3z" fill="#fc657e"/></g></g><g><g><path d="m23 153.5h-2.4v-2.3c0-1.8-1.4-3.2-3.2-3.2-1.7 0-3.2 1.4-3.2 3.1v2.4h-2.3c-1.8 0-3.2 1.4-3.2 3.2-.1 1.7 1.3 3.2 3.2 3.2h2.3v2.3c0 1.8 1.4 3.2 3.2 3.2 1.7 0 3.2-1.4 3.2-3.1v-2.4h2.3c1.8 0 3.2-1.4 3.2-3.2 0-1.7-1.4-3.2-3.1-3.2z" fill="#70d6f9"/></g></g><g><g><path d="m215.3 30.5c-1.878 0-3.4 1.522-3.4 3.4s1.522 3.4 3.4 3.4 3.4-1.522 3.4-3.4-1.522-3.4-3.4-3.4z" fill="#87d147"/></g></g><g><g><path d="m3.4 128c-1.878 0-3.4 1.522-3.4 3.4s1.522 3.4 3.4 3.4 3.4-1.522 3.4-3.4-1.522-3.4-3.4-3.4z" fill="#f5c84c"/></g></g><g><g><path d="m255.85 50.2c-4.5-.8-8-4.3-8.9-8.7 0-.2-.4-.2-.4 0-.9 4.4-4.4 7.9-8.9 8.7-.2 0-.2.3 0 .4 4.5.8 8 4.3 8.9 8.7 0 .2.4.2.4 0 .9-4.4 4.4-7.9 8.9-8.7.2-.1.2-.4 0-.4z" fill="#f5c84c"/></g></g></g></g></svg>