<svg id="Capa_1" enable-background="new 0 0 512.009 512.009" height="512" viewBox="0 0 512.009 512.009" width="512" xmlns="http://www.w3.org/2000/svg"><g><g><path d="m223.869 126.276c-37.121 22.039-52.602 61.563-58.384 102.889-2.919 20.865-3.901 42.058-1.911 63.032 1.221 12.878 3.843 26.235 10.762 36.955 1.551 2.404 5.25 1.655 5.754-1.161 4.291-24.008 9.136-48.095 19.32-70.207 11.134-24.176 29.437-47.821 52.992-60.499z" fill="#91deb6"/></g><g><path d="m229.57 140.465c-28.1 22.9-40.65 57.78-45.72 94.06-2.92 20.86-3.9 42.05-1.91 63.03.38 4.01.89 8.06 1.63 12.06-1.25 6.11-2.38 12.24-3.48 18.38-.5 2.81-4.2 3.56-5.75 1.16-6.92-10.72-9.54-24.08-10.77-36.96-1.99-20.97-1-42.16 1.92-63.03 5.78-41.33 21.26-80.85 58.38-102.89z" fill="#6ed5a1"/></g><path d="m180.638 325.085h.01z"/><g><path d="m271.64 113.37c41.907 10.368 68.152 43.73 85.633 81.621 8.826 19.13 15.891 39.135 20.05 59.788 2.553 12.682 3.904 26.226.379 38.489-.79 2.75-4.548 3.102-5.844.551-11.048-21.743-22.649-43.401-38.789-61.625-17.647-19.926-42.004-37.271-68.218-42.598z" fill="#b0e7c9"/></g><g><path d="m377.7 293.265c-.79 2.75-4.55 3.1-5.84.55-4.31-8.48-8.7-16.94-13.43-25.2-.44-3.65-1.06-7.28-1.78-10.84-4.16-20.65-11.23-40.65-20.05-59.78-14.55-31.55-35.18-59.95-65.86-74.57l.9-10.06c41.91 10.37 68.15 43.73 85.63 81.63 8.83 19.13 15.89 39.13 20.05 59.78 2.56 12.69 3.91 26.23.38 38.49z" fill="#91deb6"/></g><g><path d="m241.37 130.755c4.04-12.889 15.402-22.122 27.22-28.663 32.217-17.833 73.969-20.895 108.463-8.054 40.938 15.239 62.53 50.459 73.206 91.086 1.7 6.469 3.19 12.989 4.592 19.529.666 3.106-3.175 5.142-5.359 2.835-15.349-16.212-34.563-28.762-55.615-36.207-32.712-11.569-67.542-16.537-98.238 2.019z" fill="#91deb6"/></g><g><path d="m449.49 207.485c-4.1-4.33-8.48-8.41-13.1-12.19-11.33-37.37-32.7-69.17-71.05-83.44-34.49-12.84-76.24-9.78-108.46 8.05-5.47 3.03-10.84 6.63-15.44 10.91l-.07-.06c4.04-12.89 15.4-22.12 27.22-28.66 32.22-17.84 73.97-20.9 108.46-8.06 40.94 15.24 62.53 50.46 73.21 91.09 1.7 6.47 3.19 12.99 4.59 19.53.67 3.1-3.17 5.14-5.36 2.83z" fill="#6ed5a1"/></g><g><path d="m221.821 119.248c1.555-19.833 8.277-39.19 19.086-55.871 23.373-36.071 70.278-53.757 111.554-55.731 13.919-.666 27.989.931 41.145 5.654 14.897 5.348 28.237 15.999 40.326 26.818 2.246 2.01.673 5.747-2.33 5.495-15.94-1.334-32.175 1.365-47.789 5.236-13.659 3.386-27.242 7.731-39.278 15.021s-22.509 17.776-27.762 30.83l-5.777 14.792z" fill="#b0e7c9"/></g><g><path d="m431.6 45.615c-4.19-.35-8.4-.43-12.61-.27-7.79-5.96-16.09-11.15-24.97-14.34-12.42-4.46-25.7-5.97-38.84-5.34-38.96 1.86-83.24 18.56-105.31 52.61-7.86 12.13-13.42 25.76-16.23 39.94l-11.82 1.03c1.56-19.83 8.28-39.19 19.09-55.87 23.37-36.07 70.27-53.76 111.55-55.73 13.92-.67 27.99.93 41.15 5.65 14.89 5.35 28.23 16 40.32 26.82 2.25 2.01.68 5.75-2.33 5.5z" fill="#91deb6"/></g><g><path d="m276.11 126.276c-3.268-19.623-11.642-38.325-23.856-54.007-26.41-33.91-74.671-47.465-115.964-45.856-13.925.542-27.803 3.353-40.5 9.198-14.377 6.619-26.745 18.386-37.85 30.211-2.063 2.197-.173 5.783 2.797 5.273 15.765-2.71 32.172-1.428 48.062 1.075 13.901 2.19 27.81 5.341 40.432 11.561 12.623 6.22 23.964 15.759 30.329 28.309l7.037 14.235h89.513z" fill="#91deb6"/></g><g><path d="m276.11 126.275-17.217.569c-4.33-11.84-6.472-23.569-14.212-33.519-26.41-33.91-68.881-47.47-110.181-45.86-13.92.55-27.8 3.36-40.5 9.2-7.13 3.29-13.78 7.85-20.02 13.05-4.45.18-8.87.62-13.24 1.38-2.97.51-4.86-3.08-2.8-5.27 11.11-11.83 23.47-23.59 37.85-30.21 12.7-5.85 26.58-8.66 40.5-9.2 41.29-1.61 89.55 11.94 115.96 45.85 12.22 15.69 20.59 34.39 23.86 54.01z" fill="#6ed5a1"/></g><g><path d="m241.37 107.594c-7.688-11.106-21.281-16.544-34.509-19.277-36.062-7.451-76.836 2.036-105.955 24.549-34.558 26.719-44.706 66.765-42.823 108.729.3 6.682.815 13.35 1.42 20.011.287 3.163 4.56 3.965 5.96 1.114 9.836-20.041 24.451-37.736 42.339-51.102 27.795-20.769 59.573-35.866 94.398-27.273z" fill="#b0e7c9"/></g><g><path d="m241.37 107.595-3.1 4.49c-5.8-2.86-12.19-4.77-18.5-6.08-36.06-7.45-76.83 2.04-105.95 24.55-32.79 25.35-43.61 62.7-43.02 102.3-1.91 3.21-3.69 6.5-5.34 9.86-1.4 2.86-5.67 2.05-5.96-1.11-.6-6.66-1.12-13.33-1.42-20.01-1.88-41.96 8.27-82.01 42.83-108.73 29.11-22.51 69.89-32 105.95-24.55 13.23 2.74 26.82 8.17 34.51 19.28z" fill="#91deb6"/></g><g><path d="m228.143 142.379s49.709 168.346 24.816 362.13h79.503s2.801-267.613-79.503-378.233z" fill="#e8ad8c"/></g><g><path d="m332.46 504.505h-19.86s2.66-253.99-73.31-369.37l13.67-8.86c82.3 110.62 79.5 378.23 79.5 378.23z" fill="#e19974"/></g><g><circle cx="263.817" cy="182.792" fill="#fdf6ec" r="32.6"/></g><g><path d="m296.417 182.792c0 18-14.6 32.6-32.6 32.6-9.18 0-17.46-3.79-23.38-9.89.77.06 1.54.09 2.32.09 18.01 0 32.6-14.59 32.6-32.6 0-8.83-3.51-16.84-9.22-22.71 16.92 1.18 30.28 15.28 30.28 32.51z" fill="#fef1da"/></g><g><circle cx="249.211" cy="111.872" fill="#fdf6ec" r="32.6"/></g><g><path d="m281.811 111.872c0 18-14.6 32.6-32.6 32.6-9.18 0-17.46-3.79-23.38-9.89.77.06 1.54.09 2.32.09 18.01 0 32.6-14.59 32.6-32.6 0-8.83-3.51-16.84-9.22-22.71 16.92 1.18 30.28 15.28 30.28 32.51z" fill="#fef1da"/></g><g><circle cx="229.658" cy="150.192" fill="#fae2c0" r="32.6"/></g><g><path d="m262.259 150.192c0 18-14.6 32.6-32.6 32.6-9.18 0-17.46-3.79-23.38-9.89.77.06 1.54.09 2.32.09 18.01 0 32.6-14.59 32.6-32.6 0-8.83-3.51-16.84-9.22-22.71 16.919 1.18 30.28 15.28 30.28 32.51z" fill="#fddeb0"/></g><g><circle cx="294.417" cy="139.705" fill="#fae2c0" r="32.6"/></g><g><path d="m327.02 139.705c0 18-14.6 32.6-32.6 32.6-9.18 0-17.46-3.79-23.38-9.89.77.06 1.54.09 2.32.09 18.01 0 32.6-14.59 32.6-32.6 0-8.83-3.51-16.84-9.22-22.71 16.92 1.18 30.28 15.28 30.28 32.51z" fill="#fddeb0"/></g><path d="m462.184 203.079c-1.659-7.735-3.144-14.046-4.672-19.862-12.993-49.449-39.183-81.818-77.843-96.208-12.816-4.771-26.528-7.464-40.402-8.148 2.797-2.367 5.854-4.577 9.154-6.576 12.223-7.404 26.3-11.455 37.197-14.157 18.181-4.507 32.594-6.109 45.359-5.041 4.553.38 8.828-2.187 10.638-6.387 1.817-4.219.739-9.11-2.682-12.171-11.924-10.672-26.333-22.378-42.793-28.288-13.362-4.798-28.181-6.847-44.037-6.086-22.803 1.09-45.379 6.542-65.286 15.766-18.691 8.66-34.286 20.47-45.699 34.487-10.952-8.858-24.027-16.126-38.714-21.439-20.631-7.464-43.599-10.941-66.405-10.049-15.863.617-30.446 3.941-43.345 9.879-15.886 7.313-29.227 20.224-40.181 31.889-3.143 3.346-3.793 8.313-1.617 12.359 2.167 4.029 6.651 6.216 11.151 5.44 12.625-2.169 27.123-1.823 45.625 1.092 8.123 1.279 18.008 3.139 27.755 6.522-14.128 4.835-27.448 11.847-39.07 20.833-.316.245-.631.491-.944.738-3.251 2.565-3.808 7.282-1.242 10.533 2.566 3.252 7.283 3.808 10.533 1.242.275-.217.551-.433.829-.647 27.556-21.305 65.816-30.168 99.85-23.138 2.29.473 4.465 1.011 6.532 1.609-1.777 4.528-2.764 9.45-2.764 14.601 0 1.279.083 2.537.202 3.785-11.812 6.985-19.755 19.847-19.755 34.535 0 1.536.091 3.051.261 4.542-27.284-2.297-55.731 7.879-86.507 30.876-14.868 11.109-27.628 25.087-37.456 40.937-.111-1.821-.204-3.575-.281-5.288-1.41-31.426 4.43-57.634 17.359-77.896 2.228-3.492 1.204-8.128-2.289-10.357-3.491-2.227-8.128-1.204-10.357 2.289-14.622 22.916-21.25 52.065-19.699 86.637.27 6.006.729 12.474 1.443 20.353.437 4.81 3.923 8.632 8.675 9.511.669.124 1.335.184 1.993.184 4.005 0 7.668-2.236 9.494-5.954 9.349-19.048 23.214-35.784 40.095-48.399 22.766-17.011 43.229-26.183 62.771-27.94-8.179 16.568-13.873 36.063-17.004 58.44-3.201 22.878-3.857 44.673-1.95 64.779 1.042 10.988 3.413 27.122 11.927 40.313 1.995 3.09 5.346 4.877 8.914 4.877.704 0 1.417-.07 2.13-.213 4.324-.868 7.619-4.233 8.395-8.573 4.261-23.836 8.9-47.004 18.749-68.389 7.89-17.131 18.633-32.105 30.826-43.339 1.847 10.509 3.685 21.946 5.411 34.236 8.436 60.044 15.814 152.459 3.061 251.735-.274 2.138.384 4.291 1.808 5.91 1.424 1.618 3.475 2.546 5.631 2.546h79.502c4.111 0 7.457-3.31 7.5-7.421.004-.378.352-38.407-3.451-90.827-.3-4.131-3.891-7.226-8.023-6.938-4.131.3-7.238 3.892-6.938 8.023 1.135 15.647 1.896 29.985 2.406 42.389l-17.737.075c-4.142.018-7.486 3.39-7.468 7.532.018 4.131 3.372 7.468 7.5 7.468h.032l18.204-.077c.318 10.742.432 19.223.47 24.775h-63.516c3.747-31.813 5.489-62.833 5.861-92.263l15.459-.065c4.142-.018 7.486-3.39 7.468-7.532-.018-4.131-3.372-7.468-7.5-7.468-.01 0-.021 0-.032 0l-15.319.065c-.09-30.991-1.649-59.966-3.919-85.929l8.484-.805c4.124-.391 7.149-4.051 6.758-8.175s-4.043-7.154-8.175-6.758l-8.479.805c-1.442-14.163-3.065-27.289-4.731-39.152-1.41-10.04-2.888-19.498-4.381-28.354 3.464.979 7.112 1.514 10.885 1.514 8.75 0 16.849-2.826 23.449-7.601 2.808 8.806 5.4 17.823 7.801 26.963l-9.413 2.128c-4.04.914-6.575 4.929-5.662 8.969.788 3.483 3.881 5.848 7.309 5.848.547 0 1.104-.06 1.661-.186l9.747-2.203c5.832 24.536 10.347 49.645 13.84 73.781l-18.022.244c-4.142.056-7.454 3.459-7.398 7.601.056 4.107 3.402 7.398 7.498 7.398h.104l19.875-.269c1.556 11.958 2.869 23.586 3.974 34.682.411 4.122 4.085 7.132 8.206 6.72 4.122-.41 7.13-4.084 6.72-8.206-4.954-49.749-14.046-110.028-30.698-163.824 8.722 6.187 17.073 13.677 24.648 22.23 15.609 17.625 26.748 38.462 37.717 60.05 1.839 3.619 5.484 5.83 9.478 5.83.343 0 .689-.017 1.036-.05 4.387-.418 8.007-3.424 9.224-7.657 4.338-15.091 1.944-31.221-.234-42.041-3.987-19.799-10.915-40.474-20.592-61.45-3.772-8.176-7.806-15.784-12.087-22.848 11.979 1.172 25.023 4.272 39.381 9.35 19.868 7.027 38.081 18.885 52.668 34.293 2.078 2.194 4.854 3.344 7.688 3.344 1.69 0 3.4-.409 4.995-1.249 4.273-2.251 6.466-6.937 5.453-11.659zm-109.364-187.942c1.907-.091 3.795-.137 5.663-.137 11.729 0 22.669 1.796 32.589 5.358 10.264 3.686 19.965 10.348 28.68 17.459-11.159.322-23.448 2.208-37.743 5.751-11.928 2.957-27.408 7.436-41.359 15.886-10.239 6.202-23.899 17.212-30.862 34.517l-2.969 7.604c-3.908-1.274-8.073-1.972-12.4-1.972-2.339 0-4.624.224-6.854.61-3.671-12.06-12.881-21.724-24.653-26.022-1.515-2.218-3.083-4.404-4.74-6.532-1.886-2.422-3.913-4.763-6.047-7.037 24.489-30.995 67.276-43.887 100.695-45.485zm-103.609 71.635c11.65 0 21.46 7.982 24.275 18.763-6.498 3.996-11.786 9.778-15.144 16.674-7.287-7.468-17.45-12.117-28.684-12.117-1.869 0-3.706.139-5.507.388.726-13.196 11.688-23.708 25.06-23.708zm-40.833-5.8c-16.183-3.344-33.216-3.474-49.827-.708-2.082-1.23-4.106-2.325-6.004-3.26-14.634-7.211-30.443-10.331-42.581-12.242-14.549-2.292-26.952-3.107-38.1-2.459 8.065-7.839 17.153-15.318 27.06-19.879 11.101-5.11 23.77-7.976 37.656-8.516 34.126-1.327 79.014 8.223 105.941 38.431-8.7 1.47-16.457 5.747-22.302 11.87-3.674-1.273-7.609-2.362-11.843-3.237zm-15.781 173.675c-8.624 18.726-13.571 38.929-17.413 58.67-2.521-7.703-3.561-15.682-4.144-21.828-1.796-18.943-1.167-39.562 1.873-61.285 3.357-23.995 9.577-43.976 18.769-60.205 1.154.149 2.306.316 3.457.518 6.132 10.37 16.779 17.766 29.233 19.415.917 5.079 2.797 9.825 5.437 14.05-14.873 12.874-27.907 30.462-37.212 50.665zm37.062-79.355c-13.84 0-25.1-11.26-25.1-25.1s11.26-25.1 25.1-25.1 25.1 11.26 25.1 25.1-11.26 25.1-25.1 25.1zm34.158 32.6c-11.675 0-21.514-8.013-24.307-18.828 11.546-2.928 21.11-10.875 26.223-21.376 6.022 6.172 14.009 10.413 22.942 11.7.153 1.114.241 2.249.241 3.404.001 13.84-11.258 25.1-25.099 25.1zm5.5-68.188c0-13.84 11.26-25.1 25.1-25.1s25.1 11.26 25.1 25.1-11.26 25.101-25.1 25.101-25.1-11.26-25.1-25.101zm100.653 116.556c1.219 6.052 2.53 13.992 2.343 22.094-9.385-17.788-19.961-35.699-33.629-51.132-11.121-12.557-23.844-23.073-37.129-30.932 1.518-4.221 2.363-8.76 2.363-13.497 0-1.379-.074-2.741-.212-4.084 5.641-1.343 10.816-3.889 15.257-7.338 4.843-1.327 9.887-2.198 15.153-2.615 5.853 8.659 11.298 18.435 16.347 29.379 9.187 19.914 15.751 39.47 19.507 58.125zm26.407-92.052c-20.088-7.104-38.318-10.658-54.902-10.658-3.267 0-6.465.148-9.605.426 1.699-4.438 2.647-9.244 2.647-14.273 0-12.367-5.63-23.441-14.458-30.802l3.672-9.402c.782-1.943 1.722-3.858 2.808-5.734 16.353-.703 32.82 1.689 47.897 7.3 33.818 12.588 56.888 41.51 68.568 85.963.436 1.658.868 3.361 1.303 5.133-14.093-12.211-30.432-21.764-47.93-27.953z"/></g></svg>