<svg id="Layer_1" enable-background="new 0 0 256 256" height="512" viewBox="0 0 256 256" width="512" xmlns="http://www.w3.org/2000/svg"><path d="m179.871 47.541-17.053-25.789c-3.285-4.971-9.981-6.332-14.945-3.048-4.968 3.286-6.333 9.978-3.047 14.946l1.938 2.93c-4.752-.46-9.558-.566-14.402-.348l-13.636 1.511c-33.441 6.026-61.713 28.374-75.226 60.154-2.33 5.482.224 11.815 5.706 14.146 1.378.586 2.808.863 4.215.863 4.196 0 8.186-2.463 9.932-6.568 11.708-27.539 37.483-46.087 67.263-48.407 4.661-.362 9.278-.327 13.833.102l-5.312 3.513c-4.969 3.286-6.334 9.977-3.047 14.946 2.074 3.138 5.507 4.838 9.006 4.838 2.043 0 4.109-.579 5.94-1.79l25.788-17.052c2.386-1.578 4.048-4.039 4.62-6.842.571-2.804.005-5.719-1.573-8.105z" fill="#8ac5dc"/><path d="m181.122 46.714-17.053-25.789c-1.81-2.738-4.578-4.607-7.795-5.262-3.216-.653-6.494-.02-9.23 1.791-2.737 1.81-4.605 4.578-5.261 7.793-.656 3.216-.019 6.495 1.791 9.231l.239.361c-3.765-.244-7.625-.278-11.519-.104-.828.037-1.468.738-1.431 1.566.037.827.731 1.468 1.566 1.431 4.826-.216 9.6-.102 14.19.343.574.055 1.132-.224 1.43-.72s.285-1.118-.034-1.601l-1.938-2.931c-1.368-2.068-1.849-4.546-1.354-6.977.496-2.43 1.908-4.522 3.977-5.891 2.067-1.368 4.544-1.848 6.975-1.353 2.432.496 4.524 1.908 5.892 3.977l17.053 25.789c1.368 2.068 1.849 4.546 1.354 6.977-.496 2.431-1.909 4.522-3.977 5.891l-25.788 17.053c-1.525 1.008-3.293 1.541-5.112 1.541-.001 0-.001 0-.002 0-3.13 0-6.029-1.557-7.753-4.166-1.368-2.068-1.849-4.546-1.353-6.977.496-2.43 1.908-4.522 3.977-5.891l5.312-3.513c.531-.351.782-.998.628-1.615s-.681-1.069-1.315-1.129c-4.625-.436-9.367-.471-14.09-.104-30.341 2.363-56.599 21.259-68.527 49.315-1.461 3.436-4.818 5.655-8.552 5.655-1.248 0-2.469-.25-3.628-.743-4.712-2.004-6.915-7.467-4.912-12.179 13.238-31.133 40.943-53.288 74.11-59.264.815-.147 1.357-.927 1.21-1.742-.146-.815-.93-1.361-1.742-1.21-34.167 6.157-62.705 28.976-76.34 61.043-2.65 6.234.266 13.463 6.499 16.114 1.533.652 3.148.982 4.802.982 4.939 0 9.38-2.937 11.313-7.481 11.489-27.022 36.778-45.222 65.998-47.498 3.064-.239 6.133-.302 9.175-.188l-1.597 1.056c-2.737 1.81-4.606 4.578-5.261 7.793-.656 3.216-.02 6.494 1.79 9.231 2.281 3.451 6.115 5.511 10.255 5.511h.002c2.41 0 4.75-.705 6.767-2.039l25.788-17.053c2.737-1.81 4.606-4.577 5.263-7.793.655-3.216.018-6.495-1.792-9.231z" fill="#3a312a"/><path d="m222.68 195.496-2.608.209c3.237-4.578 6.112-9.447 8.601-14.601 16.503-34.171 12.638-74.316-10.09-104.772-3.563-4.774-10.321-5.756-15.095-2.193-4.775 3.562-5.756 10.321-2.194 15.095 17.898 23.982 20.945 55.59 7.953 82.488-2.181 4.515-4.748 8.743-7.653 12.693l-.592-7.375c-.476-5.938-5.688-10.368-11.614-9.888-5.938.477-10.366 5.676-9.888 11.614l2.474 30.817c.453 5.644 5.174 9.923 10.74 9.923.29 0 .581-.011.875-.035l30.818-2.474c5.938-.477 10.365-5.676 9.887-11.614-.476-5.937-5.667-10.36-11.614-9.887z" fill="#ed6e7a"/><path d="m223.076 193.971c2.577-3.894 4.908-7.99 6.948-12.214 16.748-34.676 12.825-75.417-10.238-106.322-4.052-5.429-11.766-6.55-17.194-2.498-2.63 1.962-4.339 4.832-4.811 8.08s.349 6.484 2.312 9.115c17.562 23.531 20.552 54.545 7.805 80.938-1.501 3.108-3.225 6.141-5.143 9.054l-.257-3.204c-.262-3.27-1.784-6.244-4.286-8.373-2.502-2.128-5.68-3.157-8.943-2.89-3.272.263-6.245 1.783-8.372 4.282-2.128 2.499-3.154 5.677-2.891 8.948l2.474 30.817c.509 6.338 5.883 11.303 12.234 11.303.331 0 .663-.013.996-.041l30.818-2.474c3.271-.263 6.244-1.783 8.371-4.282 2.128-2.499 3.154-5.677 2.891-8.948-.528-6.574-6.168-11.534-12.714-11.291zm7.538 18.296c-1.608 1.889-3.855 3.038-6.327 3.236l-30.819 2.474c-5.125.423-9.593-3.473-9.998-8.513l-2.474-30.817c-.199-2.473.577-4.874 2.185-6.763s3.855-3.038 6.329-3.236c.255-.021.508-.031.761-.031 2.196 0 4.301.773 5.996 2.215 1.891 1.61 3.042 3.857 3.24 6.329l.592 7.375c.05.624.482 1.151 1.085 1.323.601.171 1.247-.05 1.619-.554 2.997-4.075 5.62-8.424 7.795-12.929 13.236-27.405 10.131-59.606-8.102-84.037-1.483-1.988-2.104-4.435-1.747-6.889.357-2.455 1.648-4.624 3.636-6.107 4.104-3.062 9.933-2.216 12.996 1.888 22.391 30.005 26.2 69.558 9.941 103.223-2.428 5.027-5.28 9.868-8.475 14.387-.336.476-.367 1.103-.079 1.608.289.506.849.799 1.423.753l2.608-.209c5.106-.4 9.59 3.412 10 8.513.199 2.471-.577 4.872-2.185 6.761z" fill="#3a312a"/><path d="m154.652 226.996c-.522-5.934-5.752-10.326-11.691-9.797-29.801 2.624-58.304-11.387-74.365-36.572-1.417-2.222-2.708-4.494-3.888-6.807l.145.102c4.87 3.43 11.6 2.26 15.029-2.61 3.43-4.871 2.26-11.6-2.61-15.029l-25.279-17.799c-4.871-3.428-11.598-2.26-15.029 2.609l-17.8 25.28c-3.43 4.87-2.261 11.599 2.61 15.029 1.888 1.33 4.054 1.968 6.2 1.968 3.391 0 6.729-1.595 8.829-4.577l4.037-5.733c2.48 6.645 5.668 13.048 9.569 19.166 6.349 9.956 14.23 18.531 23.209 25.529l11.649 7.836c15.161 8.734 32.529 13.495 50.548 13.495 2.996 0 6.016-.132 9.04-.398 5.933-.524 10.32-5.758 9.797-11.692z" fill="#d5de58"/><path d="m156.146 226.865c-.288-3.27-1.831-6.232-4.344-8.34-2.516-2.109-5.7-3.112-8.972-2.82-29.245 2.576-57.209-11.174-72.968-35.885-.575-.901-1.137-1.826-1.684-2.767 1.612.39 3.303.448 4.988.155 3.233-.562 6.054-2.349 7.943-5.032 3.9-5.539 2.566-13.219-2.973-17.12l-25.28-17.799c-5.537-3.896-13.216-2.564-17.118 2.973l-17.8 25.279c-1.889 2.684-2.621 5.942-2.06 9.175.562 3.233 2.349 6.054 5.032 7.944 2.082 1.466 4.524 2.241 7.063 2.241 3.997 0 7.756-1.949 10.056-5.214l2.426-3.446c2.36 5.823 5.276 11.471 8.688 16.822 6.352 9.961 14.276 18.677 23.552 25.906.653.509 1.596.394 2.105-.261.509-.653.393-1.596-.261-2.105-9.005-7.018-16.698-15.48-22.866-25.153-3.81-5.975-6.982-12.328-9.428-18.884-.194-.521-.662-.892-1.213-.963-.553-.074-1.098.169-1.419.625l-4.037 5.733c-1.738 2.468-4.58 3.941-7.603 3.941-1.917 0-3.762-.586-5.336-1.694-2.028-1.428-3.379-3.561-3.803-6.004-.424-2.444.128-4.907 1.557-6.935l17.799-25.279c2.948-4.186 8.753-5.195 12.939-2.247l25.279 17.799c4.187 2.948 5.195 8.753 2.248 12.939-1.428 2.028-3.56 3.378-6.004 3.803-2.443.427-4.907-.128-6.932-1.554l-.145-.103c-.563-.398-1.325-.361-1.848.091-.521.452-.668 1.201-.354 1.815 1.222 2.395 2.554 4.727 3.96 6.932 16.362 25.657 45.388 39.94 75.762 37.26 2.471-.22 4.879.537 6.78 2.131 1.9 1.593 3.066 3.832 3.284 6.304.218 2.471-.54 4.878-2.133 6.779s-3.831 3.068-6.302 3.286c-2.951.26-5.949.392-8.909.392-17.483 0-34.703-4.597-49.799-13.295-.719-.413-1.636-.166-2.049.551-.414.718-.167 1.635.551 2.049 15.552 8.959 33.29 13.695 51.297 13.695 3.047 0 6.133-.136 9.172-.404 3.269-.288 6.229-1.832 8.337-4.347s3.111-5.701 2.822-8.969z" fill="#3a312a"/><path d="m222.8 196.99-2.61.21c-.57.05-1.13-.25-1.42-.75-.29-.51-.26-1.14.08-1.61 3.19-4.52 6.04-9.36 8.47-14.39 16.26-33.66 12.45-73.22-9.94-103.22-3.06-4.1-8.89-4.95-12.99-1.89-.75.56-1.41 1.23-1.95 1.97 22.34 29.99 26.13 69.51 9.88 103.14-2.43 5.03-5.28 9.87-8.47 14.39-.34.47-.37 1.1-.08 1.61.29.5.85.8 1.42.75l2.61-.21c5.11-.4 9.59 3.41 10 8.51.2 2.48-.58 4.88-2.19 6.77-1.6 1.89-3.85 3.03-6.32 3.23l-20.45 1.65c1.4.65 2.98.96 4.63.83l30.82-2.48c2.47-.2 4.72-1.34 6.32-3.23 1.61-1.89 2.39-4.29 2.19-6.77-.41-5.1-4.89-8.91-10-8.51z" fill="#d34e5c"/></svg>