<svg id="color_line" height="512" viewBox="0 0 74 74" width="512" xmlns="http://www.w3.org/2000/svg" data-name="color line"><path d="m71 46.31v9.04a3.909 3.909 0 0 1 -3.91 3.91h-60.18a3.909 3.909 0 0 1 -3.91-3.91v-9.04z" fill="#eeefee"/><path d="m70.667 46.31v9.04a3.909 3.909 0 0 1 -3.91 3.91h-3a3.909 3.909 0 0 0 3.91-3.91v-9.04z" fill="#e1e6e9"/><path d="m71 10.06v36.25h-68v-36.25a3.909 3.909 0 0 1 3.91-3.91h60.18a3.909 3.909 0 0 1 3.91 3.91z" fill="#89c5cd"/><path d="m70.667 10.31v36.25h-3.23v-33.42a3.909 3.909 0 0 0 -3.91-3.91h-60.18a3.079 3.079 0 0 0 -.53.04 3.888 3.888 0 0 1 3.76-2.87h60.18a3.909 3.909 0 0 1 3.91 3.91z" fill="#6eaaad"/><path d="m48.544 68.977-2.359-9.712h-18.37l-2.359 9.712z" fill="#d5d6db"/><path d="m48.545 69.477h-23.089a.5.5 0 0 1 -.486-.618l2.359-9.712a.5.5 0 0 1 .486-.382h18.37a.5.5 0 0 1 .486.382l2.36 9.712a.5.5 0 0 1 -.486.618zm-22.453-1h21.817l-2.117-8.712h-17.583z" fill="#323c6b"/><path d="m52.184 69.477h-30.368a.5.5 0 0 1 0-1h30.368a.5.5 0 0 1 0 1z" fill="#323c6b"/><circle cx="37" cy="52.553" fill="#84879c" r="1.917"/><path d="m37 54.97a2.417 2.417 0 1 1 2.417-2.417 2.419 2.419 0 0 1 -2.417 2.417zm0-3.833a1.417 1.417 0 1 0 1.417 1.417 1.419 1.419 0 0 0 -1.417-1.418z" fill="#323c6b"/><circle cx="37.293" cy="16.419" fill="#fcd462" r="4.813" transform="matrix(1 -.006 .006 1 -.098 .223)"/><path d="m46.738 31.451h-18.892c.571-5.974 2.985-7.138 6.9-8.222a4.313 4.313 0 0 0 5.1 0c3.906 1.084 6.32 2.248 6.892 8.222z" fill="#fcd462"/><path d="m41.882 16.439a4.821 4.821 0 0 1 -3.82 4.74 4.816 4.816 0 0 0 -3.15-8.48 5.04 5.04 0 0 0 -.96.1 4.732 4.732 0 0 1 3.08-1.14 4.814 4.814 0 0 1 4.85 4.78z" fill="#f7be56"/><path d="m39.393 23.23a4.179 4.179 0 0 1 -1.923.781c3.555 1 5.837 2.461 6.563 7.439h2.26c-.57-5.97-2.993-7.14-6.9-8.22z" fill="#f7be56"/><path d="m24.208 34.417h25.583v7.971h-25.583z" fill="#e1e6e9"/><g fill="#323c6b"><path d="m49.792 42.888h-25.584a.5.5 0 0 1 -.5-.5v-7.971a.5.5 0 0 1 .5-.5h25.584a.5.5 0 0 1 .5.5v7.971a.5.5 0 0 1 -.5.5zm-25.084-1h24.584v-6.971h-24.584z"/><path d="m43.553 40.529a.5.5 0 0 1 -.5-.5v-3.254a.5.5 0 0 1 1 0v3.254a.5.5 0 0 1 -.5.5z"/><path d="m30.447 40.529a.5.5 0 0 1 -.5-.5v-3.254a.5.5 0 0 1 1 0v3.254a.5.5 0 0 1 -.5.5z"/><path d="m29.071 39.659a.5.5 0 0 1 -.25-.933l2.819-1.626a.5.5 0 0 1 .5.866l-2.818 1.626a.5.5 0 0 1 -.251.067z"/><path d="m31.824 39.659a.5.5 0 0 1 -.25-.067l-2.818-1.626a.5.5 0 0 1 .5-.866l2.818 1.626a.5.5 0 0 1 -.25.933z"/><path d="m37 40.529a.5.5 0 0 1 -.5-.5v-3.254a.5.5 0 0 1 1 0v3.254a.5.5 0 0 1 -.5.5z"/><path d="m35.624 39.659a.5.5 0 0 1 -.25-.933l2.817-1.626a.5.5 0 0 1 .5.866l-2.817 1.626a.5.5 0 0 1 -.25.067z"/><path d="m38.376 39.659a.5.5 0 0 1 -.25-.067l-2.817-1.626a.5.5 0 0 1 .5-.866l2.817 1.626a.5.5 0 0 1 -.25.933z"/><path d="m42.176 39.659a.5.5 0 0 1 -.25-.933l2.818-1.626a.5.5 0 0 1 .5.866l-2.818 1.626a.5.5 0 0 1 -.25.067z"/><path d="m44.929 39.659a.5.5 0 0 1 -.25-.067l-2.819-1.627a.5.5 0 0 1 .5-.866l2.818 1.626a.5.5 0 0 1 -.25.933z"/><path d="m66.313 62.765h-9.875a.5.5 0 0 1 0-1h9.875a.5.5 0 0 1 0 1z"/><path d="m54.156 62.765h-1.187a.5.5 0 0 1 0-1h1.188a.5.5 0 0 1 0 1z"/><path d="m.521 7.938a.5.5 0 0 1 -.191-.038.5.5 0 0 1 -.271-.653 7.393 7.393 0 0 1 6.854-4.6h2.337a.5.5 0 0 1 0 1h-2.338a6.4 6.4 0 0 0 -5.93 3.981.5.5 0 0 1 -.461.31z"/><path d="m12.875 3.65h-1.125a.5.5 0 0 1 0-1h1.125a.5.5 0 0 1 0 1z"/><path d="m71 46.81h-68a.5.5 0 0 1 -.5-.5v-36.25a4.415 4.415 0 0 1 4.41-4.41h60.18a4.415 4.415 0 0 1 4.41 4.41v36.25a.5.5 0 0 1 -.5.5zm-67.5-1h67v-35.75a3.414 3.414 0 0 0 -3.41-3.41h-60.18a3.414 3.414 0 0 0 -3.41 3.41z"/><path d="m67.09 59.76h-60.18a4.415 4.415 0 0 1 -4.41-4.41v-9.04a.5.5 0 0 1 .5-.5h68a.5.5 0 0 1 .5.5v9.04a4.415 4.415 0 0 1 -4.41 4.41zm-63.59-12.95v8.54a3.414 3.414 0 0 0 3.41 3.41h60.18a3.414 3.414 0 0 0 3.41-3.41v-8.54z"/><path d="m37.291 21.731a5.313 5.313 0 0 1 -.03-10.625h.031a5.313 5.313 0 0 1 .032 10.625zm-.024-9.625a4.313 4.313 0 0 0 .024 8.625h.027a4.313 4.313 0 0 0 -.026-8.625z"/><path d="m46.737 31.951h-18.891a.5.5 0 0 1 -.5-.547c.606-6.335 3.394-7.584 7.265-8.657a.5.5 0 0 1 .431.08 3.874 3.874 0 0 0 4.5 0 .5.5 0 0 1 .431-.08c3.867 1.073 6.65 2.323 7.257 8.657a.5.5 0 0 1 -.5.547zm-18.335-1h17.779c-.626-5.134-2.8-6.2-6.243-7.177a4.886 4.886 0 0 1 -5.284 0c-3.454.973-5.626 2.04-6.254 7.177z"/></g><path d="m13.2 42.65h-6.1a.749.749 0 0 1 -.75-.749v-4.468a.75.75 0 0 1 1.5 0v3.719h5.35a.749.749 0 1 1 0 1.5z" fill="#fff"/><path d="m7.1 34.833a.749.749 0 0 1 -.75-.749v-1.022a.75.75 0 0 1 1.5 0v1.022a.749.749 0 0 1 -.75.749z" fill="#fff"/></svg>