<svg id="Capa_1" enable-background="new 0 0 512 512" height="512" viewBox="0 0 512 512" width="512" xmlns="http://www.w3.org/2000/svg"><g><g><path d="m426.738 86.167h-10.361c0-32.781-26.574-59.355-59.355-59.355v-10.362c0-4.943-4.007-8.95-8.95-8.95h-184.145c-4.943 0-8.95 4.007-8.95 8.95v10.361c-32.781 0-59.355 26.574-59.355 59.355h-10.362c-4.943 0-8.95 4.007-8.95 8.95v321.766c0 4.943 4.007 8.95 8.95 8.95h10.361c0 32.781 26.574 59.355 59.355 59.355v10.361c0 4.943 4.007 8.95 8.95 8.95h184.144c4.943 0 8.95-4.007 8.95-8.95v-10.361c32.781 0 59.356-26.574 59.356-59.355h10.361c4.943 0 8.95-4.007 8.95-8.95v-321.765c.001-4.943-4.006-8.95-8.949-8.95z" fill="#dbedff"/><path d="m206.56 495.55v-2.269c0-2.485-1.067-4.85-2.929-6.495-1.297-1.145-2.909-1.874-4.625-2.092-26.772-3.402-47.966-24.63-51.32-51.417-.248-1.981-1.164-3.818-2.624-5.178-1.564-1.456-3.621-2.266-5.758-2.266h-2.46c-4.943 0-8.95-4.007-8.95-8.95v-321.766c0-4.943 4.007-8.95 8.95-8.95h6.712c1.122 0 2.187-.498 2.905-1.361.521-.625.816-1.404.864-2.217 1.774-29.813 25.543-53.694 55.309-55.639.914-.06 1.788-.4 2.481-.998.917-.791 1.445-1.942 1.445-3.154v-6.348c0-4.943 4.007-8.95 8.95-8.95h-51.583c-4.943 0-8.95 4.007-8.95 8.95v10.361c-32.781 0-59.355 26.574-59.355 59.355h-10.362c-4.943 0-8.95 4.007-8.95 8.95v321.766c0 4.943 4.007 8.95 8.95 8.95h10.361c0 32.781 26.574 59.355 59.355 59.355v10.361c0 4.943 4.007 8.95 8.95 8.95h51.583c-4.942.002-8.949-4.005-8.949-8.948z" fill="#b5dcff"/><path d="m331.8 137.833h-151.317l-3.65 2.959v30.992l4.467 2.716h151.166l2.699-2.716v-30.992z" fill="#ffaa5b"/><path d="m231.103 140.792 3.65-2.959h-54.27l-3.65 2.959v30.992l4.467 2.716h54.269l-4.466-2.716z" fill="#ff9838"/><path d="m309.98 73.333h-62.708l-17.639 11.667v55.792h105.532v-42.273c0-13.91-11.276-25.186-25.185-25.186z" fill="#ffe02f"/><path d="m256.288 73.333h-54.27c-13.909 0-25.185 11.276-25.185 25.185v42.273h54.27v-42.272c0-13.91 11.276-25.186 25.185-25.186z" fill="#fbc700"/><path d="m336.503 259.356h-101.762l-6.858 5.144v31.167l7.651 5.689h100.968c6.533 0 11.83-5.296 11.83-11.83v-18.341c0-6.532-5.296-11.829-11.829-11.829z" fill="#ff5595"/><path d="m228.749 289.527v-18.341c0-6.533 5.296-11.83 11.83-11.83h-65.083c-6.533 0-11.83 5.296-11.83 11.83v18.341c0 6.533 5.296 11.83 11.83 11.83h65.083c-6.533-.001-11.83-5.297-11.83-11.83z" fill="#ff0263"/><path d="m229.633 171.784h76.159v30.992h-76.159z" fill="#ffddbe"/><path d="m204.966 171.784h26.137v30.992h-26.137z" fill="#ffcb9e"/><path d="m243.999 107.062h-5.256l-8.444 5.521v23l8.166 5.209h5.534c6.6 0 12-5.4 12-12v-9.729c0-6.6-5.4-12.001-12-12.001z" fill="#fff1af"/><path d="m231.103 128.792v-9.729c0-6.6 5.4-12 12-12h-24.896c-6.6 0-12 5.4-12 12v9.729c0 6.6 5.4 12 12 12h24.896c-6.6 0-12-5.4-12-12z" fill="#ffeb7e"/><path d="m176.833 220.148c0 3.968 3.217 7.185 7.185 7.185h17.171c3.968 0 7.185-3.217 7.185-7.185v-48.365h-31.541z" fill="#ffaa5b"/><path d="m303.624 171.784v48.365c0 3.968 3.217 7.185 7.185 7.185h17.171c3.968 0 7.185-3.217 7.185-7.185v-48.365z" fill="#ffcb9e"/><path d="m293.76 107.062h-5.27l-8.466 5.521v23l8.187 5.209h5.548c6.618 0 12.032-5.4 12.032-12v-9.729c.001-6.6-5.414-12.001-12.031-12.001z" fill="#fff1af"/><path d="m280.829 128.792v-9.729c0-6.6 5.414-12 12.032-12h-24.962c-6.618 0-12.032 5.4-12.032 12v9.729c0 6.6 5.414 12 12.032 12h24.962c-6.617 0-12.032-5.4-12.032-12z" fill="#ffeb7e"/></g><g><path d="m256 334.417h-110.75c-4.143 0-7.5 3.358-7.5 7.5s3.357 7.5 7.5 7.5h110.75c4.143 0 7.5-3.358 7.5-7.5s-3.358-7.5-7.5-7.5z"/><path d="m366.75 334.417h-12c-4.143 0-7.5 3.358-7.5 7.5s3.357 7.5 7.5 7.5h12c4.143 0 7.5-3.358 7.5-7.5s-3.358-7.5-7.5-7.5z"/><path d="m256 368.583h-110.75c-4.143 0-7.5 3.358-7.5 7.5s3.357 7.5 7.5 7.5h110.75c4.143 0 7.5-3.358 7.5-7.5s-3.358-7.5-7.5-7.5z"/><path d="m366.75 368.583h-12c-4.143 0-7.5 3.358-7.5 7.5s3.357 7.5 7.5 7.5h12c4.143 0 7.5-3.358 7.5-7.5s-3.358-7.5-7.5-7.5z"/><path d="m256 402.75h-110.75c-4.143 0-7.5 3.358-7.5 7.5s3.357 7.5 7.5 7.5h110.75c4.143 0 7.5-3.358 7.5-7.5s-3.358-7.5-7.5-7.5z"/><path d="m366.75 402.75h-12c-4.143 0-7.5 3.358-7.5 7.5s3.357 7.5 7.5 7.5h12c4.143 0 7.5-3.358 7.5-7.5s-3.358-7.5-7.5-7.5z"/><path d="m327.083 334.417h-12c-4.143 0-7.5 3.358-7.5 7.5s3.357 7.5 7.5 7.5h12c4.143 0 7.5-3.358 7.5-7.5s-3.358-7.5-7.5-7.5z"/><path d="m327.083 368.583h-12c-4.143 0-7.5 3.358-7.5 7.5s3.357 7.5 7.5 7.5h12c4.143 0 7.5-3.358 7.5-7.5s-3.358-7.5-7.5-7.5z"/><path d="m327.083 402.75h-12c-4.143 0-7.5 3.358-7.5 7.5s3.357 7.5 7.5 7.5h12c4.143 0 7.5-3.358 7.5-7.5s-3.358-7.5-7.5-7.5z"/><path d="m310.81 234.833h17.171c8.097 0 14.685-6.587 14.685-14.685 0-24.658 0-98.444 0-121.63 0-18.022-14.663-32.685-32.686-32.685h-107.961c-18.022 0-32.686 14.663-32.686 32.685v121.63c0 8.097 6.588 14.685 14.685 14.685h17.172c8.097 0 14.685-6.587 14.685-14.685v-9.873h80.25v9.873c0 8.098 6.587 14.685 14.685 14.685zm-126.477-70.549v-15.992h143.332v15.992c-49.855 0-91.139 0-143.332 0zm29.375-35.492v-9.729c0-2.439 2.061-4.5 4.5-4.5h25.792c2.439 0 4.5 2.061 4.5 4.5v9.729c0 2.439-2.061 4.5-4.5 4.5h-25.792c-2.44 0-4.5-2.061-4.5-4.5zm84.584 0c0 2.439-2.061 4.5-4.5 4.5h-25.792c-2.439 0-4.5-2.061-4.5-4.5v-9.729c0-2.439 2.061-4.5 4.5-4.5h25.793c2.439 0 4.5 2.061 4.5 4.5v9.729zm29.374 91.041h-16.541c0-20.268 0-23.537 0-40.549h16.541zm-143.333-121.314c0-9.751 7.934-17.685 17.686-17.685h107.961c9.752 0 17.686 7.934 17.686 17.685v34.773h-14.918c.344-1.447.545-2.949.545-4.5v-9.729c0-10.752-8.748-19.5-19.5-19.5h-25.793c-4.527 0-8.687 1.564-12 4.162-3.313-2.598-7.473-4.162-12-4.162h-25.792c-10.752 0-19.5 8.748-19.5 19.5v9.729c0 1.551.201 3.053.545 4.5h-14.919v-34.773zm16.542 121.314h-16.541v-40.549h16.541zm15-24.558v-15.992h80.25v15.992z"/><path d="m355.833 289.526v-18.341c0-10.658-8.671-19.329-19.329-19.329h-161.008c-10.658 0-19.329 8.671-19.329 19.329v18.341c0 10.659 8.671 19.33 19.329 19.33h63.004c4.143 0 7.5-3.358 7.5-7.5s-3.357-7.5-7.5-7.5h-63.004c-2.387 0-4.329-1.942-4.329-4.33v-18.341c0-2.387 1.942-4.329 4.329-4.329h161.008c2.387 0 4.329 1.942 4.329 4.329v18.341c0 2.388-1.942 4.33-4.329 4.33h-63.004c-4.143 0-7.5 3.358-7.5 7.5s3.357 7.5 7.5 7.5h63.004c10.658 0 19.329-8.671 19.329-19.33z"/><path d="m85.261 433.333h3.278c3.464 30.883 28.055 55.474 58.938 58.938v3.279c0 9.071 7.38 16.45 16.45 16.45h184.145c9.07 0 16.45-7.379 16.45-16.45v-3.279c30.883-3.464 55.474-28.055 58.938-58.938h3.279c9.07 0 16.45-7.379 16.45-16.45v-143.383c0-4.142-3.357-7.5-7.5-7.5s-7.5 3.358-7.5 7.5v143.383c0 .8-.65 1.45-1.45 1.45h-10.361c-4.143 0-7.5 3.358-7.5 7.5 0 28.593-23.263 51.855-51.855 51.855-4.143 0-7.5 3.358-7.5 7.5v10.361c0 .8-.65 1.45-1.45 1.45h-184.146c-.8 0-1.45-.65-1.45-1.45v-10.361c0-4.142-3.357-7.5-7.5-7.5-28.593 0-51.855-23.262-51.855-51.855 0-4.142-3.357-7.5-7.5-7.5h-10.36c-.8 0-1.45-.65-1.45-1.45v-321.766c0-.8.65-1.45 1.45-1.45h10.36c4.143 0 7.5-3.358 7.5-7.5 0-28.593 23.263-51.855 51.855-51.855 4.143 0 7.5-3.358 7.5-7.5v-10.362c0-.8.65-1.45 1.45-1.45h184.145c.8 0 1.45.65 1.45 1.45v10.361c0 4.142 3.357 7.5 7.5 7.5 28.593 0 51.855 23.262 51.855 51.855 0 4.142 3.357 7.5 7.5 7.5h10.361c.8 0 1.45.65 1.45 1.45v143.384c0 4.142 3.357 7.5 7.5 7.5s7.5-3.358 7.5-7.5v-143.383c0-9.071-7.38-16.45-16.45-16.45h-3.279c-3.464-30.883-28.055-55.474-58.938-58.938v-3.279c0-9.071-7.38-16.45-16.45-16.45h-184.144c-9.07 0-16.45 7.379-16.45 16.45v3.279c-30.883 3.464-55.474 28.055-58.938 58.938h-3.278c-9.07 0-16.45 7.379-16.45 16.45v321.766c0 9.071 7.38 16.45 16.45 16.45z"/></g></g></svg>