<svg id="Capa_1" enable-background="new 0 0 512 512" height="512" viewBox="0 0 512 512" width="512" xmlns="http://www.w3.org/2000/svg"><g><g><ellipse cx="92.703" cy="365.094" fill="#b8ecbc" rx="82.703" ry="82.718"/><ellipse cx="92.703" cy="146.906" fill="#ff7d97" rx="82.703" ry="82.718"/><g fill="#faf7f5"><path d="m502 211.479h-268.213l-1.024-129.146h268.212z"/><path d="m322.02 429.667h-88.233l-1.024-129.146h268.212l1.025 129.146h-89.257"/></g></g><g><path d="m500.976 290.521h-268.213c-2.666 0-5.222 1.064-7.099 2.957-1.878 1.893-2.922 4.456-2.901 7.122l1.024 129.146c.044 5.492 4.508 9.921 10 9.921h88.232c5.522 0 10-4.478 10-10s-4.478-10-10-10h-78.312l-.865-109.146h248.212l.865 109.146h-79.177c-5.522 0-10 4.478-10 10s4.478 10 10 10h89.258c2.666 0 5.222-1.064 7.099-2.957 1.878-1.893 2.922-4.456 2.901-7.122l-1.024-129.146c-.044-5.493-4.508-9.921-10-9.921z"/><path d="m376.8 425.84c-1.612-3.867-5.578-6.388-9.771-6.161-4.159.225-7.815 3.106-9.029 7.085-1.197 3.921.207 8.353 3.478 10.837 3.385 2.571 8.096 2.724 11.642.379 3.938-2.605 5.459-7.795 3.68-12.14z"/><path d="m92.702 272.377c-51.116 0-92.702 41.593-92.702 92.717 0 51.125 41.586 92.718 92.702 92.718s92.703-41.593 92.703-92.718c0-51.124-41.587-92.717-92.703-92.717zm0 165.435c-40.088 0-72.702-32.621-72.702-72.718 0-40.096 32.614-72.717 72.702-72.717 40.089 0 72.703 32.621 72.703 72.717 0 40.097-32.614 72.718-72.703 72.718z"/><path d="m92.702 54.189c-51.116 0-92.702 41.592-92.702 92.717 0 51.124 41.586 92.717 92.702 92.717s92.703-41.593 92.703-92.717c0-51.125-41.587-92.717-92.703-92.717zm0 165.434c-40.088 0-72.702-32.621-72.702-72.717 0-40.097 32.614-72.718 72.702-72.718 40.089 0 72.703 32.621 72.703 72.718 0 40.096-32.614 72.717-72.703 72.717z"/><path d="m118.825 120.779c-3.904-3.906-10.237-3.905-14.142.001l-11.981 11.983-11.98-11.983c-3.903-3.904-10.236-3.905-14.142-.001-3.905 3.904-3.906 10.236-.001 14.142l11.983 11.985-11.983 11.985c-3.905 3.905-3.904 10.237.001 14.142 1.952 1.953 4.511 2.929 7.07 2.929s5.119-.977 7.071-2.93l11.981-11.983 11.981 11.983c1.952 1.953 4.512 2.93 7.071 2.93s5.118-.977 7.07-2.929c3.905-3.904 3.906-10.236.001-14.142l-11.983-11.985 11.983-11.985c3.906-3.905 3.905-10.237 0-14.142z"/><path d="m233.787 221.48h268.213c2.666 0 5.222-1.064 7.099-2.957 1.878-1.893 2.922-4.456 2.901-7.122l-1.024-129.146c-.044-5.492-4.508-9.921-10-9.921h-268.213c-2.666 0-5.222 1.065-7.099 2.957-1.878 1.893-2.922 4.456-2.901 7.122l1.024 129.146c.044 5.492 4.508 9.921 10 9.921zm257.268-129.147.865 109.146h-248.212l-.865-109.146z"/><path d="m295.544 135.854h161.813c5.523 0 10-4.478 10-10s-4.477-10-10-10h-161.813c-5.522 0-10 4.478-10 10s4.478 10 10 10z"/><path d="m295.544 177.958h104.264c5.523 0 10-4.477 10-10 0-5.522-4.477-10-10-10h-104.264c-5.522 0-10 4.478-10 10 0 5.523 4.478 10 10 10z"/><path d="m295.544 357.264h161.813c5.523 0 10-4.478 10-10 0-5.523-4.477-10-10-10h-161.813c-5.522 0-10 4.477-10 10 0 5.522 4.478 10 10 10z"/><path d="m409.808 389.367c0-5.522-4.477-10-10-10h-104.264c-5.522 0-10 4.478-10 10s4.478 10 10 10h104.264c5.522 0 10-4.477 10-10z"/><path d="m117.996 341.362c-4.472-3.236-10.725-2.234-13.964 2.239l-15.903 21.977-7.952-7.592c-3.993-3.814-10.324-3.669-14.138.327-3.814 3.994-3.668 10.324.327 14.138l16.24 15.506c1.868 1.784 4.345 2.768 6.904 2.768.303 0 .607-.014.91-.041 2.876-.263 5.499-1.757 7.192-4.097l22.622-31.261c3.239-4.473 2.237-10.725-2.238-13.964z"/></g></g></svg>